<svg id="Layer_1" data-name="Layer 1" xmlns="http://www.w3.org/2000/svg" viewBox="0 0 54 54"><defs><style>.cls-1{fill:#2469f2;}.cls-2{fill:#0f5cf7;}.cls-3{fill:#f7fdff;}</style></defs><title>site_mockup</title><circle class="cls-1" cx="27" cy="27" r="27"/><circle class="cls-2" cx="27" cy="27" r="24.97"/><path class="cls-3" d="M36,32.53a7,7,0,0,1-2.24,5.53c-1.61,1.42-4,2.14-7.12,2.14a11.34,11.34,0,0,1-9-4.09l2.71-2.64a8.62,8.62,0,0,0,6.58,3c3.5,0,5.24-1.23,5.24-3.69a2.73,2.73,0,0,0-1.24-2.33,16.9,16.9,0,0,0-4.47-1.86,17.92,17.92,0,0,1-6-2.64,5.9,5.9,0,0,1-2-4.81A6.25,6.25,0,0,1,20.89,16a9.21,9.21,0,0,1,6-1.91,11.5,11.5,0,0,1,8.27,3.43l-2.67,2.71a8,8,0,0,0-5.89-2.42,4.87,4.87,0,0,0-3.17.88A2.83,2.83,0,0,0,22.34,21a2.51,2.51,0,0,0,1.14,2.15,16.21,16.21,0,0,0,4.39,1.79,18.37,18.37,0,0,1,5.93,2.68A6.11,6.11,0,0,1,36,32.53Z"/></svg>